<svg id="video-chat" xmlns="http://www.w3.org/2000/svg" width="29.646" height="31.813" viewBox="0 0 29.646 31.813">
  <rect id="Rectangle_156" data-name="Rectangle 156" width="21" height="13" transform="translate(4.388 4.851)" fill="#98c932"/>
  <path id="Path_1137" data-name="Path 1137" d="M17.982,0H6.424A6.2,6.2,0,0,0,1.877,1.877,6.2,6.2,0,0,0,0,6.424V17.7a6.2,6.2,0,0,0,1.877,4.554,6.228,6.228,0,0,0,4.547,1.877h4.963A25,25,0,0,1,9.994,28.16a10.729,10.729,0,0,1-2.807,3.653,22.192,22.192,0,0,0,6.7-2.918,19.914,19.914,0,0,0,5.067-4.761h4.262A6.413,6.413,0,0,0,29.646,17.7V6.424a6.19,6.19,0,0,0-1.88-4.547A6.2,6.2,0,0,0,23.219,0ZM8.609,6.864h8.28a1.305,1.305,0,0,1,1.3,1.3V9.554l4.148-2.493v7.868l-4.148-2.24v1.8a1.3,1.3,0,0,1-1.3,1.3H8.609a1.3,1.3,0,0,1-1.3-1.3V8.166a1.3,1.3,0,0,1,1.3-1.3Z" transform="translate(0 0)"/>
</svg>
