<svg xmlns="http://www.w3.org/2000/svg" width="33.748" height="33.08" viewBox="0 0 33.748 33.08">
  <g id="Group_10052" data-name="Group 10052" transform="translate(-464.105 -30.42)">
    <path id="work-schedule" d="M25.4,16.963a7.273,7.273,0,1,1-7.271,7.272A7.273,7.273,0,0,1,25.4,16.963ZM19.038,1.114A1.2,1.2,0,0,1,20.352.05a1.214,1.214,0,0,1,1.314,1.077v5A1.212,1.212,0,0,1,20.352,7.2a1.212,1.212,0,0,1-1.314-1.077Zm-11.77,0A1.2,1.2,0,0,1,8.582.05,1.217,1.217,0,0,1,9.9,1.127v5a1.225,1.225,0,0,1-1.316,1.09A1.212,1.212,0,0,1,7.268,6.14V1.114ZM17,29.8H2.723A2.734,2.734,0,0,1,0,27.077V5.5A2.736,2.736,0,0,1,2.723,2.776h2.51V6.127A2.989,2.989,0,0,0,6.366,8.453a3.524,3.524,0,0,0,4.433,0,2.989,2.989,0,0,0,1.133-2.327V2.776H17V6.127a2.986,2.986,0,0,0,1.13,2.327,3.526,3.526,0,0,0,4.436,0A2.994,2.994,0,0,0,23.7,6.127V2.776h2.627A2.734,2.734,0,0,1,29.05,5.5V14.83a10.2,10.2,0,0,0-1.162-.372v-3.8H1.162V26.5A2.149,2.149,0,0,0,3.3,28.624H16.333A10.665,10.665,0,0,0,17,29.786ZM5.234,14.993l.92.864L8.039,13.94c.194-.2.319-.359.561-.109l.8.8c.266.266.242.4,0,.644L6.6,18.008c-.511.5-.423.532-.944.019L3.912,16.29a.226.226,0,0,1,.021-.354l.912-.944C4.981,14.849,5.093,14.857,5.234,14.993Zm7.531-1.2h3.9a.5.5,0,0,1,.5.495V17.53a.5.5,0,0,1-.5.5h-3.9a.5.5,0,0,1-.5-.5V14.283A.5.5,0,0,1,12.765,13.788Zm7.869,0h3.9a.5.5,0,0,1,.481.372,10.05,10.05,0,0,0-4.88,1.476V14.283a.5.5,0,0,1,.5-.495Zm-7.869,6.9h3.191a10.055,10.055,0,0,0-.633,3.548,6.649,6.649,0,0,0,.024.691H12.765a.5.5,0,0,1-.5-.5V21.186a.5.5,0,0,1,.5-.5Zm-7.866,0H8.8a.5.5,0,0,1,.505.5v3.244a.5.5,0,0,1-.505.5H4.9a.5.5,0,0,1-.5-.5V21.186a.5.5,0,0,1,.5-.5Zm19.5-.114h.888a.3.3,0,0,1,.3.3V24.3h3.141a.3.3,0,0,1,.3.3v.891a.3.3,0,0,1-.3.3H24.1V20.872a.3.3,0,0,1,.3-.3Zm1.008-1.96a5.622,5.622,0,1,1-5.616,5.622A5.622,5.622,0,0,1,25.4,18.615Z" transform="translate(464.105 30.37)" fill-rule="evenodd"/>
    <circle id="Ellipse_9" data-name="Ellipse 9" cx="9" cy="9" r="9" transform="translate(479.595 45.5)" fill="#fff"/>
    <path id="Path_1136" data-name="Path 1136" d="M68.005,56.53a8.7,8.7,0,1,1-6.156,2.549,8.68,8.68,0,0,1,6.156-2.549Zm-3.834,9.631a.859.859,0,0,1-.107-.14,1.06,1.06,0,0,1-.082-.156.983.983,0,0,1-.063-.559,1,1,0,0,1,.246-.5l.049-.049a1,1,0,0,1,1.2-.134.9.9,0,0,1,.156.118l.005.005c.274.263.737.693,1.041.961l.26.233,3.193-3.349a.8.8,0,0,1,.148-.123.919.919,0,0,1,.167-.093,1.028,1.028,0,0,1,.183-.06.914.914,0,0,1,.192-.022h0a1.1,1.1,0,0,1,.189.014,1.028,1.028,0,0,1,.189.052,1.009,1.009,0,0,1,.173.085.978.978,0,0,1,.151.118l.022.022a1.028,1.028,0,0,1,.12.145,1,1,0,0,1,.093.167.848.848,0,0,1,.06.183,1.112,1.112,0,0,1,.025.192V63.3a.87.87,0,0,1-.016.17,1.039,1.039,0,0,1-.049.181,1.009,1.009,0,0,1-.085.173.892.892,0,0,1-.118.151L67.66,68.02a.886.886,0,0,1-.145.126,1.014,1.014,0,0,1-.167.1,1.036,1.036,0,0,1-.183.063.9.9,0,0,1-.192.027h-.016a1.2,1.2,0,0,1-.175-.011l-.014,0a1.188,1.188,0,0,1-.17-.044,1,1,0,0,1-.173-.082l-.008-.005a1.453,1.453,0,0,1-.148-.107l-.008-.008c-.225-.208-.468-.419-.712-.633-.43-.37-1.021-.9-1.377-1.279Z" transform="translate(421.145 -10.94)" fill="#98c932" fill-rule="evenodd"/>
  </g>
</svg>
