<svg id="Icon_ionic-logo-apple" data-name="Icon ionic-logo-apple" xmlns="http://www.w3.org/2000/svg" width="25.03" height="30.042" viewBox="0 0 25.03 30.042">
  <path id="Path_164" data-name="Path 164" d="M25.334,10.821c-2.628,0-3.739,1.212-5.569,1.212-1.877,0-3.308-1.2-5.584-1.2a7.671,7.671,0,0,0-6.116,3.555C5.945,17.541,6.3,23.49,9.738,28.557c1.228,1.814,2.87,3.848,5.021,3.87H14.8c1.869,0,2.425-1.182,5-1.2h.039c2.534,0,3.042,1.19,4.9,1.19h.039c2.151-.022,3.879-2.277,5.107-4.083a19.679,19.679,0,0,0,1.893-3.422,6.124,6.124,0,0,1-.853-11.229,7.5,7.5,0,0,0-5.592-2.864Z" transform="translate(-6.748 -2.386)" fill="#fff"/>
  <path id="Path_165" data-name="Path 165" d="M24.734,4.5a8.2,8.2,0,0,0-5.348,2.965,7.463,7.463,0,0,0-1.745,5.7h.15a6.965,6.965,0,0,0,5.235-2.824A7.991,7.991,0,0,0,24.734,4.5Z" transform="translate(-6.297 -4.5)" fill="#fff"/>
</svg>
