<svg xmlns="http://www.w3.org/2000/svg" width="38.836" height="36.11" viewBox="0 0 38.836 36.11">
  <g id="Group_10053" data-name="Group 10053" transform="translate(-461.047 -27.39)">
    <rect id="Rectangle_155" data-name="Rectangle 155" width="11" height="12" transform="translate(475 39)" fill="#98c932"/>
    <path id="encrypted" d="M19.417,7.648c3.523,2.234,6.707,3.292,9.437,3.039.477,9.651-3.087,15.351-9.4,17.745-6.1-2.211-9.705-7.68-9.437-17.875a13.492,13.492,0,0,0,9.4-2.894Zm4.467-1.674V7.358c.366.158.73.3,1.09.433V6.527h1.264a1.6,1.6,0,1,0,0-1.09h-1.81a.54.54,0,0,0-.543.543ZM0,11.525a1.6,1.6,0,1,1,2.24,1.463v3.194H8.034c.063.37.13.733.2,1.09H1.7a.54.54,0,0,1-.543-.528V13.06A1.6,1.6,0,0,1,0,11.525Zm4.394-1.062a1.6,1.6,0,0,1,3.159-.3v.559A1.611,1.611,0,0,1,6.508,11.97v1.264H7.667c.028.37.063.733.1,1.09H5.974a.543.543,0,0,1-.543-.543V11.958a1.58,1.58,0,0,1-1.036-1.494ZM.025,20.374a1.6,1.6,0,0,1,3.1-.547H8.9c.117.373.243.736.373,1.09H3.124a1.6,1.6,0,0,1-3.1-.543Zm3.45,6.65a1.6,1.6,0,0,1,1.03-1.494v-2.1a.543.543,0,0,1,.55-.543h5.071c.186.376.385.739.594,1.093H5.595v1.535a1.6,1.6,0,1,1-2.12,1.51ZM26.664,36.11a1.6,1.6,0,1,0-1.46-2.243H22.01V29.924q-.531.294-1.09.559v3.93a.543.543,0,0,0,.543.543h3.668a1.6,1.6,0,0,0,1.532,1.153Zm1.065-4.394a1.6,1.6,0,1,0-1.507-2.126H24.958V27.858q-.528.458-1.09.872v1.406a.54.54,0,0,0,.543.543h1.81a1.58,1.58,0,0,0,1.494,1.036Zm-9.911,4.366a1.6,1.6,0,0,0,.547-3.1V30.667c-.357-.161-.736-.338-1.09-.518v2.843a1.6,1.6,0,0,0,.543,3.1Zm-6.634-3.447a1.6,1.6,0,0,0,1.479-1.043h2.1a.55.55,0,0,0,.543-.547V28.964a10.973,10.973,0,0,1-1.09-.847v2.388H12.678a1.6,1.6,0,1,0-1.51,2.12Zm27.653-21.11a1.6,1.6,0,1,0-2.24,1.463v3.194H30.96c-.057.37-.123.733-.2,1.09H37.14a.54.54,0,0,0,.528-.528V13.06a1.6,1.6,0,0,0,1.153-1.535Zm-4.4-1.062a1.6,1.6,0,0,0-3.1-.54,1.8,1.8,0,0,0,0,1.109,1.611,1.611,0,0,0,.948.948v1.264H31.276c-.025.37-.054.733-.088,1.09h1.668a.543.543,0,0,0,.543-.543V11.958a1.58,1.58,0,0,0,1.036-1.494Zm4.36,9.911a1.6,1.6,0,0,0-3.1-.547H30.092c-.12.373-.246.736-.382,1.09H35.7a1.6,1.6,0,0,0,3.1-.543Zm-3.45,6.65a1.6,1.6,0,0,0-1.03-1.494v-2.1a.543.543,0,0,0-.547-.543H28.837c-.193.376-.4.739-.61,1.093h5v1.535a1.6,1.6,0,1,0,2.12,1.51ZM26.664,0A1.6,1.6,0,1,1,25.2,2.24H22.01V6.47c-.36-.19-.723-.385-1.09-.594V1.7a.54.54,0,0,1,.543-.543h3.668A1.6,1.6,0,0,1,26.664,0ZM17.818.025a1.6,1.6,0,0,1,.547,3.1v2.6q-.547.37-1.09.682V3.124a1.6,1.6,0,0,1,.543-3.1Zm-6.65,3.45a1.6,1.6,0,0,1,1.494,1.03h2.1a.55.55,0,0,1,.543.55V7.377c-.363.152-.727.287-1.093.408V5.595H12.678a1.6,1.6,0,1,1-1.51-2.12Zm4.739,12.362h.351V15.19a3.352,3.352,0,0,1,.929-2.322,3.087,3.087,0,0,1,4.511,0,3.352,3.352,0,0,1,.929,2.322v.648h.351a.524.524,0,0,1,.521.521v5.491a.521.521,0,0,1-.521.518H15.913a.521.521,0,0,1-.521-.518V16.358a.524.524,0,0,1,.521-.521Zm3.109,3.507-.559,1.469h1.971L19.9,19.325a1.024,1.024,0,1,0-.894.019Zm-1.766-3.507h4.4V15.19A2.373,2.373,0,0,0,21,13.547a2.117,2.117,0,0,0-3.1,0,2.373,2.373,0,0,0-.651,1.643Z" transform="translate(461.047 27.39)" fill-rule="evenodd"/>
  </g>
</svg>
