<svg xmlns="http://www.w3.org/2000/svg" width="214" height="34" viewBox="0 0 214 34">
  <g id="Social_icon" data-name="Social icon" transform="translate(-177 -5100)">
    <g id="Icon-_Youtube" data-name="Icon- Youtube" transform="translate(120)">
      <rect id="Rectangle_8" data-name="Rectangle 8" width="34" height="34" rx="2" transform="translate(177 5100)" fill="red"/>
      <g id="youtube" transform="translate(183.001 5110)">
        <path id="Path_9" data-name="Path 9" d="M20.96,2.345A2.681,2.681,0,0,0,19.074.458C17.4,0,10.7,0,10.7,0S4,0,2.327.441a2.736,2.736,0,0,0-1.886,1.9A28.254,28.254,0,0,0,0,7.492,28.15,28.15,0,0,0,.441,12.64a2.682,2.682,0,0,0,1.886,1.886c1.692.458,8.374.458,8.374.458s6.7,0,8.374-.441a2.681,2.681,0,0,0,1.886-1.886A28.255,28.255,0,0,0,21.4,7.51a26.818,26.818,0,0,0-.441-5.165Zm0,0" transform="translate(0 0)" fill="#fff"/>
        <path id="Path_10" data-name="Path 10" d="M204.969,108.9l5.571-3.208-5.571-3.208Zm0,0" transform="translate(-196.401 -98.201)" fill="red"/>
      </g>
    </g>
    <g id="Icon-facebook" transform="translate(60)">
      <rect id="Rectangle_8-2" data-name="Rectangle 8" width="34" height="34" rx="2" transform="translate(177 5100)" fill="#03a9f4"/>
      <path id="twitter" d="M21.385,45.86a.468.468,0,0,0-.561-.1,3.993,3.993,0,0,1-.6.216,4.208,4.208,0,0,0,.711-1.368.468.468,0,0,0-.72-.5,9.828,9.828,0,0,1-2.25.88,4.706,4.706,0,0,0-5.9-.455,4.64,4.64,0,0,0-2.02,4.288A11.073,11.073,0,0,1,2.3,44.642a.484.484,0,0,0-.4-.175.467.467,0,0,0-.374.228,4.526,4.526,0,0,0-.516,3.513,5,5,0,0,0,.813,1.7,2.483,2.483,0,0,1-.475-.3.468.468,0,0,0-.762.363,4.836,4.836,0,0,0,2.491,4.152,3.467,3.467,0,0,1-.6-.129.468.468,0,0,0-.561.64,5.1,5.1,0,0,0,3.542,2.9A8.239,8.239,0,0,1,.522,58.544a.461.461,0,0,0-.5.32.468.468,0,0,0,.215.552,14.014,14.014,0,0,0,6.911,1.964,11.869,11.869,0,0,0,6.559-2.006c3.706-2.46,6.016-6.875,5.694-10.827a8.735,8.735,0,0,0,2.033-2.119A.468.468,0,0,0,21.385,45.86Z" transform="translate(183.575 5064.298)" fill="#fff"/>
    </g>
    <g id="Icon-facebook-2" data-name="Icon-facebook">
      <rect id="Rectangle_8-3" data-name="Rectangle 8" width="34" height="34" rx="2" transform="translate(177 5100)" fill="#3b5999"/>
      <path id="facebook" d="M14.219,3.263h1.794V.138A23.165,23.165,0,0,0,13.4,0C7.724,0,9.268,6.427,9.042,7.369H6.187v3.493H9.041V19.65h3.5V10.863h2.739l.435-3.493H12.54c.154-2.312-.623-4.107,1.679-4.107Z" transform="translate(182.813 5107)" fill="#fff"/>
    </g>
    <g id="Icon-linkedin" transform="translate(180)">
      <rect id="Rectangle_8-4" data-name="Rectangle 8" width="34" height="34" rx="2" transform="translate(177 5100)" fill="#2196f3"/>
      <g id="linkedin" transform="translate(184.001 5106.989)">
        <circle id="Ellipse_25" data-name="Ellipse 25" cx="2.5" cy="2.5" r="2.5" transform="translate(0.007 0.011)" fill="#fff"/>
        <path id="Path_7" data-name="Path 7" d="M.417,170.667h4.17a.417.417,0,0,1,.417.417v12.509a.417.417,0,0,1-.417.417H.417A.417.417,0,0,1,0,183.593V171.084A.417.417,0,0,1,.417,170.667Z" transform="translate(-0.001 -163.987)" fill="#fff"/>
        <path id="Path_8" data-name="Path 8" d="M181.007,150.023a6.338,6.338,0,0,0-5.349.887.417.417,0,0,0-.405-.314h-4.17a.417.417,0,0,0-.417.417v12.509a.417.417,0,0,0,.417.417h4.17a.417.417,0,0,0,.417-.417v-8.99a2.19,2.19,0,0,1,2.252-.464,1.962,1.962,0,0,1,1.084,1.948v7.505a.417.417,0,0,0,.417.417h4.17a.417.417,0,0,0,.417-.417v-8.345C183.961,151.751,182.349,150.483,181.007,150.023Z" transform="translate(-163.995 -143.917)" fill="#fff"/>
      </g>
    </g>
  </g>
</svg>
